{"title":"Your Love Never Fails 2011 DvDRip XviD Ac3 Feel-Free","uid":6388743,"size":971371965,"categoryP":"video","categoryS":"movies","magnet":"?xt=urn:btih:ad09e5ccedc06756a62951dcdccfc492ca036c63&amp;dn=Your+Love+Never+Fails+2011+DvDRip+XviD+Ac3+Feel-Free&amp;tr=udp%3A%2F%2Ftracker.openbittorrent.com%3A80&amp;tr=udp%3A%2F%2Fopen.demonii.com%3A1337&amp;tr=udp%3A%2F%2Ftracker.coppersurfer.tk%3A6969&amp;tr=udp%3A%2F%2Fexodus.desync.com%3A6969","seeders":1,"leechers":1,"uploader":"hiest","files":-1,"time":1305245571,"description":" ######## ######## ######## ##          ######## ########  ######## ######## \n ##       ##       ##       ##          ##       ##     ## ##       ##       \n ##       ##       ##       ##          ##       ##     ## ##       ##       \n ######   ######   ######   ##          ######   ########  ######   ######   \n ##       ##       ##       ##          ##       ##   ##   ##       ##       \n ##       ##       ##       ##          ##       ##    ##  ##       ##       \n ##       ######## ######## ########    ##       ##     ## ######## ########\n\n Genre:Comedy \n Language:English\n IMDb:\n &lt;a href=&quot; http://www.imdb.com/title/tt1698639/&quot; rel=&quot;nofollow&quot; target=&quot;_NEW&quot;&gt; http://www.imdb.com/title/tt1698639/&lt;/a&gt;\n Source:DVD\n Subtitles:Romana\n\n Format : AVI\n Format/Info : Audio Video Interleave\n File size : 925 MiB\n Duration : 1h 35mn\n Overall bit rate : 1 351 Kbps\n\n Video\n ID : 0\n Format : MPEG-4 Visual\n Format profile : Advanced Simple@L5\n Format settings, BVOP : Yes\n Format settings, QPel : No\n Format settings, GMC : No warppoints\n Format settings, Matrix : Default (H.263)\n Codec ID : XVID\n Codec ID/Hint : XviD\n Duration : 1h 35mn\n Bit rate : 894 Kbps\n Width : 640 pixels\n Height : 352 pixels\n Display aspect ratio : 16:9\n Frame rate : 23.976 fps\n Color space : YUV\n Chroma subsampling : 4:2:0\n Bit depth : 8 bits\n Scan type : Progressive\n Bits/(Pixel*Frame) : 0.166\n Stream size : 612 MiB (66%)\n Writing library : XviD 1.2.1 (UTC 2008-12-04)\n\n Audio\n ID : 1\n Format : AC-3\n Format/Info : Audio Coding 3\n Mode extension : CM (complete main)\n Codec ID : 2000\n Duration : 1h 35mn\n Bit rate mode : Constant\n Bit rate : 448 Kbps\n Channel(s) : 6 channels\n Channel positions : Front: L C R, Side: L R, LFE\n Sampling rate : 48.0 KHz\n Bit depth : 16 bits\n Stream size : 307 MiB (33%)\n Alignment : Aligned on interleaves\n Interleave, duration : 42 ms (1.00 video frame)\n Interleave, preload duration : 512 ms\n\n ######## ######## ######## ##          ######## ########  ######## ######## \n ##       ##       ##       ##          ##       ##     ## ##       ##       \n ##       ##       ##       ##          ##       ##     ## ##       ##       \n ######   ######   ######   ##          ######   ########  ######   ######   \n ##       ##       ##       ##          ##       ##   ##   ##       ##       \n ##       ##       ##       ##          ##       ##    ##  ##       ##       \n ##       ######## ######## ########    ##       ##     ## ######## ########","torrent":{"xt":"urn:btih:ad09e5ccedc06756a62951dcdccfc492ca036c63","amp;dn":"Your+Love+Never+Fails+2011+DvDRip+XviD+Ac3+Feel-Free","amp;tr":["udp%3A%2F%2Ftracker.openbittorrent.com%3A80","udp%3A%2F%2Fopen.demonii.com%3A1337","udp%3A%2F%2Ftracker.coppersurfer.tk%3A6969","udp%3A%2F%2Fexodus.desync.com%3A6969"],"infoHash":"ad09e5ccedc06756a62951dcdccfc492ca036c63","infoHashBuffer":{"type":"Buffer","data":[173,9,229,204,237,192,103,86,166,41,81,220,220,207,196,146,202,3,108,99]},"announce":[],"urlList":[]}}